<svg width="121" height="27" fill="none" xmlns="http://www.w3.org/2000/svg"><path d="M1.9 4.588V10.1c0 .904 0 1.92-1.9 1.92v2.96c1.9 0 1.9 1.015 1.9 1.92v5.51C1.9 26.69 4.273 27 8.309 27v-3.327c-1.9 0-2.612-.276-2.612-1.343v-5.457c0-1.26.088-2.577-1.026-3.373 1.114-.795 1.026-2.112 1.026-3.373V4.67c0-1.066.713-1.344 2.612-1.344V0c-4.036 0-6.41.31-6.41 4.588zm10.68-.178c-1.039.865-1.557 2.109-1.557 3.729v1.455H8.855v3.041h2.168v11.02h4.71v-11.02h2.918v-3.04h-2.918v-1.04c0-.528.158-.935.472-1.22.315-.287.765-.43 1.349-.43l1.75.005V3.383s-2.614-.029-2.988-.029c-1.137 0-2.7.189-3.737 1.056zm8.796 2.489h4.711V3.383h-4.71v3.516zm0 16.757h4.711V9.594h-4.71v14.062zM37.704 9.334c-.89 0-1.696.198-2.418.591a5.308 5.308 0 00-1.82 1.644l-.181-1.975H28.88v14.061h4.683v-10.11c.24-.26.53-.464.868-.61a2.905 2.905 0 011.16-.221c.695 0 1.221.167 1.578.5.356.334.535.902.535 1.709v8.734H42.4v-8.72c0-1.95-.415-3.371-1.244-4.264-.829-.893-1.98-1.339-3.453-1.339zm18.901 7.389c-.884-.671-2.245-1.177-4.079-1.515-1.167-.207-1.943-.442-2.327-.702-.384-.259-.577-.576-.577-.948 0-.39.167-.71.5-.961.333-.252.746-.378 1.237-.378.667 0 1.15.143 1.452.43.3.285.452.706.452 1.26h4.557l.028-.078c.056-1.327-.509-2.406-1.695-3.242-1.186-.837-2.78-1.255-4.78-1.255-1.9 0-3.405.431-4.517 1.293-1.112.863-1.667 1.912-1.667 3.15 0 1.17.444 2.094 1.334 2.769.889.676 2.21 1.174 3.96 1.495 1.112.216 1.878.46 2.3.733.422.274.632.584.632.929 0 .425-.162.753-.486.98-.325.23-.801.347-1.431.347-.76 0-1.346-.149-1.758-.443-.413-.293-.628-.775-.646-1.442h-4.252l-.028.078c-.055 1.196.512 2.28 1.703 3.25 1.19.97 2.809 1.454 4.856 1.454 1.974 0 3.56-.409 4.76-1.228 1.2-.819 1.8-1.86 1.8-3.125 0-1.23-.444-2.18-1.328-2.851zm16.767 1.02h-.084l-2.473-8.148h-2.96l-2.446 8.214h-.083l-1.653-8.214h-4.336l3.543 14.062h3.962l2.458-7.46h.084l2.446 7.46h3.974l3.53-14.062h-4.336l-1.626 8.148zm13.936-8.409c-2.233-.008-3.95.665-5.15 2.021-1.2 1.356-1.8 3.104-1.8 5.244v.494c0 1.958.66 3.587 1.98 4.887 1.32 1.3 3.088 1.95 5.302 1.95 1.195 0 2.314-.15 3.356-.45 1.042-.298 1.892-.672 2.55-1.123l-1.112-2.677c-.815.321-1.49.546-2.022.676-.533.131-1.244.196-2.134.196-.88 0-1.583-.232-2.111-.695a2.812 2.812 0 01-.946-1.775l.029-.079h8.587v-2.301c0-1.958-.58-3.508-1.737-4.652-1.156-1.144-2.755-1.716-4.792-1.716zm1.945 5.927H85.21l-.041-.064c.074-.755.28-1.357.619-1.807.337-.45.845-.676 1.522-.676.666 0 1.156.191 1.473.572.315.381.473.927.473 1.638l-.002.337zm13.816-5.927c-2.232-.008-3.948.665-5.149 2.021-1.199 1.356-1.8 3.104-1.8 5.244v.494c0 1.958.66 3.587 1.98 4.887 1.322 1.3 3.088 1.95 5.302 1.95 1.195 0 2.314-.15 3.357-.45 1.042-.298 1.892-.672 2.549-1.123l-1.111-2.677c-.816.321-1.489.546-2.023.676-.534.131-1.243.196-2.133.196-.88 0-1.583-.232-2.112-.695a2.808 2.808 0 01-.945-1.775l.028-.079h8.587v-2.301c0-1.958-.579-3.508-1.737-4.652-1.158-1.144-2.754-1.716-4.793-1.716zm1.945 5.927h-4.043l-.042-.064c.075-.755.281-1.357.619-1.807.337-.45.845-.676 1.521-.676.667 0 1.158.191 1.474.572.316.381.473.927.473 1.638v.338h-.002v-.001zm14.235 4.748c-.584 0-1.034-.143-1.348-.428-.315-.286-.473-.695-.473-1.223V12.66h2.444V9.618h-2.444V3.36h-4.71v6.258h-2.169v3.042h2.169v6.116c0 1.62.518 2.863 1.555 3.73s2.599 1.055 3.738 1.055c.374 0 2.989-.028 2.989-.028v-3.529l-1.751.005z" fill="#fff"/></svg>