<svg width="122" height="28" fill="none" xmlns="http://www.w3.org/2000/svg"><path d="M1.906 4.662v5.6c0 .92 0 1.951-1.906 1.951v3.009c1.906 0 1.906 1.031 1.906 1.95v5.6c0 4.347 2.381 4.663 6.43 4.663v-3.38c-1.905 0-2.62-.281-2.62-1.366v-5.545c0-1.28.089-2.618-1.03-3.427 1.119-.808 1.03-2.145 1.03-3.427V4.746c0-1.083.715-1.365 2.62-1.365V0c-4.049 0-6.43.315-6.43 4.662zm10.716-.181c-1.042.88-1.562 2.143-1.562 3.789v1.479H8.885v3.09h2.175v11.197h4.726V12.84h2.928V9.75h-2.928V8.694c0-.537.158-.95.474-1.24.316-.291.767-.436 1.353-.436l1.757.005V3.437s-2.624-.029-2.999-.029c-1.14 0-2.708.192-3.75 1.073zm8.827 2.529h4.727V3.437h-4.727V7.01zm0 17.027h4.727V9.749h-4.727v14.288zM37.83 9.484c-.892 0-1.701.201-2.426.601a5.35 5.35 0 00-1.826 1.67l-.181-2.006h-4.42v14.287h4.698V13.764c.242-.264.532-.473.871-.62.34-.15.728-.226 1.165-.226.697 0 1.225.17 1.582.509.358.34.537.917.537 1.736v8.874h4.713v-8.86c0-1.981-.416-3.425-1.248-4.332-.831-.907-1.987-1.36-3.465-1.36zm18.965 7.508c-.887-.682-2.252-1.196-4.092-1.539-1.171-.21-1.95-.45-2.335-.713-.386-.263-.58-.586-.58-.964 0-.397.168-.72.502-.976.335-.256.749-.384 1.241-.384.67 0 1.155.146 1.457.436.302.29.454.717.454 1.28h4.573l.028-.078c.056-1.349-.51-2.445-1.7-3.295-1.191-.85-2.79-1.275-4.798-1.275-1.906 0-3.416.438-4.532 1.315-1.115.876-1.672 1.942-1.672 3.2 0 1.189.446 2.127 1.338 2.813.892.687 2.217 1.193 3.974 1.52 1.115.22 1.884.468 2.307.745.424.277.635.593.635.943 0 .432-.163.765-.488.997-.326.233-.804.352-1.436.352-.762 0-1.35-.151-1.764-.45-.414-.299-.63-.788-.648-1.465h-4.267l-.027.078c-.056 1.216.513 2.317 1.708 3.302 1.194.986 2.819 1.479 4.873 1.479 1.98 0 3.571-.416 4.775-1.249 1.205-.831 1.806-1.889 1.806-3.175 0-1.25-.444-2.215-1.332-2.897zm16.824 1.037h-.084l-2.481-8.28h-2.97l-2.454 8.347h-.084l-1.66-8.346h-4.35l3.556 14.287h3.975l2.467-7.579h.083l2.455 7.58h3.987L79.602 9.75h-4.35l-1.632 8.279zm13.983-8.545c-2.24-.008-3.963.677-5.166 2.054-1.205 1.378-1.807 3.154-1.807 5.328v.502c0 1.99.663 3.645 1.986 4.966 1.325 1.32 3.099 1.98 5.32 1.98 1.2 0 2.322-.151 3.368-.455 1.045-.303 1.899-.684 2.558-1.142l-1.115-2.72c-.818.326-1.495.554-2.03.687-.534.133-1.248.199-2.14.199-.883 0-1.59-.236-2.12-.707-.53-.472-.845-1.072-.948-1.803l.03-.08h8.615v-2.338c0-1.99-.581-3.565-1.743-4.728-1.16-1.162-2.764-1.743-4.808-1.743zm1.952 6.023h-4.058l-.041-.066c.074-.766.281-1.378.621-1.836.338-.457.848-.686 1.527-.686.669 0 1.16.194 1.478.581.316.387.474.942.474 1.664v.343zm13.863-6.023c-2.241-.008-3.962.677-5.167 2.054-1.203 1.378-1.806 3.154-1.806 5.328v.502c0 1.99.663 3.645 1.988 4.966 1.325 1.32 3.097 1.98 5.318 1.98 1.2 0 2.323-.151 3.369-.455 1.046-.303 1.898-.684 2.558-1.142l-1.115-2.72c-.818.326-1.494.554-2.029.687-.536.133-1.249.199-2.141.199-.883 0-1.589-.236-2.119-.707-.531-.472-.846-1.072-.949-1.803l.028-.08h8.617v-2.338c0-1.99-.581-3.565-1.743-4.728-1.162-1.162-2.764-1.743-4.809-1.743zm1.951 6.023h-4.056l-.042-.066c.075-.766.281-1.378.62-1.836.338-.457.848-.686 1.527-.686.669 0 1.162.194 1.479.581.317.387.474.942.474 1.664v.343h-.002zm14.283 4.824c-.585 0-1.037-.145-1.353-.435-.315-.29-.474-.706-.474-1.242v-5.79h2.452V9.773h-2.452V3.414h-4.726v6.359h-2.176v3.09h2.176v6.215c0 1.646.52 2.91 1.561 3.79 1.04.882 2.607 1.073 3.75 1.073.376 0 2.999-.029 2.999-.029v-3.586l-1.757.005z" fill="#1E1B1B"/></svg>