<svg viewBox="0 0 185 49" xmlns="http://www.w3.org/2000/svg" xmlns:xlink="http://www.w3.org/1999/xlink"><style>:root&gt;svg{display:none}:root&gt;svg:target{display:block}</style><svg fill="none" viewBox="0 0 48 48" id="Checkmark" xmlns="http://www.w3.org/2000/svg"><circle cx="24" cy="24" r="24" fill="#00D289"/><path d="M12 24.5l7 7L36.5 14" stroke="#fff" stroke-width="4" stroke-linecap="round"/></svg><svg fill="none" viewBox="0 0 24 24" id="LinkedIn" xmlns="http://www.w3.org/2000/svg"><path d="M22.223 0H1.772C.792 0 0 .773 0 1.73v20.536C0 23.222.792 24 1.772 24h20.451c.98 0 1.777-.778 1.777-1.73V1.73C24 .773 23.203 0 22.223 0zM7.12 20.452H3.558V8.995H7.12v11.457zM5.34 7.434a2.064 2.064 0 110-4.125 2.063 2.063 0 010 4.125zm15.112 13.018h-3.558v-5.57c0-1.326-.024-3.037-1.852-3.037-1.851 0-2.133 1.449-2.133 2.944v5.663H9.356V8.995h3.413v1.566h.047c.473-.9 1.636-1.852 3.365-1.852 3.605 0 4.27 2.372 4.27 5.457v6.286z" fill="#fff"/></svg><svg fill="none" viewBox="0 0 18 16" id="accordion" xmlns="http://www.w3.org/2000/svg"><path stroke="#fff" stroke-width="2" stroke-linecap="round" d="M1.896 8h15.026m-7.449 7V1"/></svg><svg fill="none" viewBox="0 0 18 2" id="accordion_active" xmlns="http://www.w3.org/2000/svg"><path stroke="#fff" stroke-width="2" stroke-linecap="round" d="M1.896 1h15.026"/></svg><svg fill="none" viewBox="0 0 53 16" id="arrow" xmlns="http://www.w3.org/2000/svg"><path d="M52.707 8.707a1 1 0 000-1.414L46.343.929a1 1 0 10-1.414 1.414L50.586 8l-5.657 5.657a1 1 0 001.414 1.414l6.364-6.364zM0 9h52V7H0v2z" fill="#1E1B1B"/></svg><svg fill="none" viewBox="0 0 24 24" id="facebook" xmlns="http://www.w3.org/2000/svg"><path d="M24 12c0-6.627-5.373-12-12-12S0 5.373 0 12c0 5.99 4.388 10.954 10.125 11.854V15.47H7.078V12h3.047V9.356c0-3.007 1.792-4.668 4.533-4.668 1.312 0 2.686.234 2.686.234v2.953H15.83c-1.491 0-1.956.925-1.956 1.875V12h3.328l-.532 3.469h-2.796v8.385C19.612 22.954 24 17.99 24 12z" fill="#fff"/></svg><svg fill="none" viewBox="0 0 121 27" id="footer_logo" xmlns="http://www.w3.org/2000/svg"><path d="M1.9 4.588V10.1c0 .904 0 1.92-1.9 1.92v2.96c1.9 0 1.9 1.015 1.9 1.92v5.51C1.9 26.69 4.273 27 8.309 27v-3.327c-1.9 0-2.612-.276-2.612-1.343v-5.457c0-1.26.088-2.577-1.026-3.373 1.114-.795 1.026-2.112 1.026-3.373V4.67c0-1.066.713-1.344 2.612-1.344V0c-4.036 0-6.41.31-6.41 4.588zm10.68-.178c-1.039.865-1.557 2.109-1.557 3.729v1.455H8.855v3.041h2.168v11.02h4.71v-11.02h2.918v-3.04h-2.918v-1.04c0-.528.158-.935.472-1.22.315-.287.765-.43 1.349-.43l1.75.005V3.383s-2.614-.029-2.988-.029c-1.137 0-2.7.189-3.737 1.056zm8.796 2.489h4.711V3.383h-4.71v3.516zm0 16.757h4.711V9.594h-4.71v14.062zM37.704 9.334c-.89 0-1.696.198-2.418.591a5.308 5.308 0 00-1.82 1.644l-.181-1.975H28.88v14.061h4.683v-10.11c.24-.26.53-.464.868-.61a2.905 2.905 0 011.16-.221c.695 0 1.221.167 1.578.5.356.334.535.902.535 1.709v8.734H42.4v-8.72c0-1.95-.415-3.371-1.244-4.264-.829-.893-1.98-1.339-3.453-1.339zm18.901 7.389c-.884-.671-2.245-1.177-4.079-1.515-1.167-.207-1.943-.442-2.327-.702-.384-.259-.577-.576-.577-.948 0-.39.167-.71.5-.961.333-.252.746-.378 1.237-.378.667 0 1.15.143 1.452.43.3.285.452.706.452 1.26h4.557l.028-.078c.056-1.327-.509-2.406-1.695-3.242-1.186-.837-2.78-1.255-4.78-1.255-1.9 0-3.405.431-4.517 1.293-1.112.863-1.667 1.912-1.667 3.15 0 1.17.444 2.094 1.334 2.769.889.676 2.21 1.174 3.96 1.495 1.112.216 1.878.46 2.3.733.422.274.632.584.632.929 0 .425-.162.753-.486.98-.325.23-.801.347-1.431.347-.76 0-1.346-.149-1.758-.443-.413-.293-.628-.775-.646-1.442h-4.252l-.028.078c-.055 1.196.512 2.28 1.703 3.25 1.19.97 2.809 1.454 4.856 1.454 1.974 0 3.56-.409 4.76-1.228 1.2-.819 1.8-1.86 1.8-3.125 0-1.23-.444-2.18-1.328-2.851zm16.767 1.02h-.084l-2.473-8.148h-2.96l-2.446 8.214h-.083l-1.653-8.214h-4.336l3.543 14.062h3.962l2.458-7.46h.084l2.446 7.46h3.974l3.53-14.062h-4.336l-1.626 8.148zm13.936-8.409c-2.233-.008-3.95.665-5.15 2.021-1.2 1.356-1.8 3.104-1.8 5.244v.494c0 1.958.66 3.587 1.98 4.887 1.32 1.3 3.088 1.95 5.302 1.95 1.195 0 2.314-.15 3.356-.45 1.042-.298 1.892-.672 2.55-1.123l-1.112-2.677c-.815.321-1.49.546-2.022.676-.533.131-1.244.196-2.134.196-.88 0-1.583-.232-2.111-.695a2.812 2.812 0 01-.946-1.775l.029-.079h8.587v-2.301c0-1.958-.58-3.508-1.737-4.652-1.156-1.144-2.755-1.716-4.792-1.716zm1.945 5.927H85.21l-.041-.064c.074-.755.28-1.357.619-1.807.337-.45.845-.676 1.522-.676.666 0 1.156.191 1.473.572.315.381.473.927.473 1.638l-.002.337zm13.816-5.927c-2.232-.008-3.948.665-5.149 2.021-1.199 1.356-1.8 3.104-1.8 5.244v.494c0 1.958.66 3.587 1.98 4.887 1.322 1.3 3.088 1.95 5.302 1.95 1.195 0 2.314-.15 3.357-.45 1.042-.298 1.892-.672 2.549-1.123l-1.111-2.677c-.816.321-1.489.546-2.023.676-.534.131-1.243.196-2.133.196-.88 0-1.583-.232-2.112-.695a2.808 2.808 0 01-.945-1.775l.028-.079h8.587v-2.301c0-1.958-.579-3.508-1.737-4.652-1.158-1.144-2.754-1.716-4.793-1.716zm1.945 5.927h-4.043l-.042-.064c.075-.755.281-1.357.619-1.807.337-.45.845-.676 1.521-.676.667 0 1.158.191 1.474.572.316.381.473.927.473 1.638v.338h-.002v-.001zm14.235 4.748c-.584 0-1.034-.143-1.348-.428-.315-.286-.473-.695-.473-1.223V12.66h2.444V9.618h-2.444V3.36h-4.71v6.258h-2.169v3.042h2.169v6.116c0 1.62.518 2.863 1.555 3.73s2.599 1.055 3.738 1.055c.374 0 2.989-.028 2.989-.028v-3.529l-1.751.005z" fill="#fff"/></svg><svg fill="none" viewBox="0 0 20 20" id="header_call" xmlns="http://www.w3.org/2000/svg"><path d="M17.76 13.92c-1.296-1.033-2.612-1.659-3.893-.627l-.764.623c-.56.453-1.6 2.568-5.621-1.743-4.02-4.306-1.628-4.977-1.068-5.425l.77-.625c1.273-1.034.792-2.336-.127-3.676l-.554-.812C5.58.298 4.575-.58 3.298.453l-.69.562A6.01 6.01 0 00.083 5.01c-.46 2.84.993 6.091 4.321 9.659 3.325 3.569 6.58 5.362 9.664 5.33 2.562-.025 4.11-1.307 4.594-1.773l.693-.562c1.273-1.032.482-2.083-.815-3.119l-.78-.625z" fill="#fff"/></svg><svg fill="none" viewBox="0 0 122 28" id="header_logo" xmlns="http://www.w3.org/2000/svg"><path d="M1.906 4.662v5.6c0 .92 0 1.951-1.906 1.951v3.009c1.906 0 1.906 1.031 1.906 1.95v5.6c0 4.347 2.381 4.663 6.43 4.663v-3.38c-1.905 0-2.62-.281-2.62-1.366v-5.545c0-1.28.089-2.618-1.03-3.427 1.119-.808 1.03-2.145 1.03-3.427V4.746c0-1.083.715-1.365 2.62-1.365V0c-4.049 0-6.43.315-6.43 4.662zm10.716-.181c-1.042.88-1.562 2.143-1.562 3.789v1.479H8.885v3.09h2.175v11.197h4.726V12.84h2.928V9.75h-2.928V8.694c0-.537.158-.95.474-1.24.316-.291.767-.436 1.353-.436l1.757.005V3.437s-2.624-.029-2.999-.029c-1.14 0-2.708.192-3.75 1.073zm8.827 2.529h4.727V3.437h-4.727V7.01zm0 17.027h4.727V9.749h-4.727v14.288zM37.83 9.484c-.892 0-1.701.201-2.426.601a5.35 5.35 0 00-1.826 1.67l-.181-2.006h-4.42v14.287h4.698V13.764c.242-.264.532-.473.871-.62.34-.15.728-.226 1.165-.226.697 0 1.225.17 1.582.509.358.34.537.917.537 1.736v8.874h4.713v-8.86c0-1.981-.416-3.425-1.248-4.332-.831-.907-1.987-1.36-3.465-1.36zm18.965 7.508c-.887-.682-2.252-1.196-4.092-1.539-1.171-.21-1.95-.45-2.335-.713-.386-.263-.58-.586-.58-.964 0-.397.168-.72.502-.976.335-.256.749-.384 1.241-.384.67 0 1.155.146 1.457.436.302.29.454.717.454 1.28h4.573l.028-.078c.056-1.349-.51-2.445-1.7-3.295-1.191-.85-2.79-1.275-4.798-1.275-1.906 0-3.416.438-4.532 1.315-1.115.876-1.672 1.942-1.672 3.2 0 1.189.446 2.127 1.338 2.813.892.687 2.217 1.193 3.974 1.52 1.115.22 1.884.468 2.307.745.424.277.635.593.635.943 0 .432-.163.765-.488.997-.326.233-.804.352-1.436.352-.762 0-1.35-.151-1.764-.45-.414-.299-.63-.788-.648-1.465h-4.267l-.027.078c-.056 1.216.513 2.317 1.708 3.302 1.194.986 2.819 1.479 4.873 1.479 1.98 0 3.571-.416 4.775-1.249 1.205-.831 1.806-1.889 1.806-3.175 0-1.25-.444-2.215-1.332-2.897zm16.824 1.037h-.084l-2.481-8.28h-2.97l-2.454 8.347h-.084l-1.66-8.346h-4.35l3.556 14.287h3.975l2.467-7.579h.083l2.455 7.58h3.987L79.602 9.75h-4.35l-1.632 8.279zm13.983-8.545c-2.24-.008-3.963.677-5.166 2.054-1.205 1.378-1.807 3.154-1.807 5.328v.502c0 1.99.663 3.645 1.986 4.966 1.325 1.32 3.099 1.98 5.32 1.98 1.2 0 2.322-.151 3.368-.455 1.045-.303 1.899-.684 2.558-1.142l-1.115-2.72c-.818.326-1.495.554-2.03.687-.534.133-1.248.199-2.14.199-.883 0-1.59-.236-2.12-.707-.53-.472-.845-1.072-.948-1.803l.03-.08h8.615v-2.338c0-1.99-.581-3.565-1.743-4.728-1.16-1.162-2.764-1.743-4.808-1.743zm1.952 6.023h-4.058l-.041-.066c.074-.766.281-1.378.621-1.836.338-.457.848-.686 1.527-.686.669 0 1.16.194 1.478.581.316.387.474.942.474 1.664v.343zm13.863-6.023c-2.241-.008-3.962.677-5.167 2.054-1.203 1.378-1.806 3.154-1.806 5.328v.502c0 1.99.663 3.645 1.988 4.966 1.325 1.32 3.097 1.98 5.318 1.98 1.2 0 2.323-.151 3.369-.455 1.046-.303 1.898-.684 2.558-1.142l-1.115-2.72c-.818.326-1.494.554-2.029.687-.536.133-1.249.199-2.141.199-.883 0-1.589-.236-2.119-.707-.531-.472-.846-1.072-.949-1.803l.028-.08h8.617v-2.338c0-1.99-.581-3.565-1.743-4.728-1.162-1.162-2.764-1.743-4.809-1.743zm1.951 6.023h-4.056l-.042-.066c.075-.766.281-1.378.62-1.836.338-.457.848-.686 1.527-.686.669 0 1.162.194 1.479.581.317.387.474.942.474 1.664v.343h-.002zm14.283 4.824c-.585 0-1.037-.145-1.353-.435-.315-.29-.474-.706-.474-1.242v-5.79h2.452V9.773h-2.452V3.414h-4.726v6.359h-2.176v3.09h2.176v6.215c0 1.646.52 2.91 1.561 3.79 1.04.882 2.607 1.073 3.75 1.073.376 0 2.999-.029 2.999-.029v-3.586l-1.757.005z" fill="#1E1B1B"/></svg><svg fill="none" viewBox="0 0 25 24" id="instagram" xmlns="http://www.w3.org/2000/svg"><g clip-path="url(#jclip0_482:1269)" fill="#fff"><path d="M12.334 2.16c3.206 0 3.585.015 4.846.071 1.172.052 1.805.249 2.227.413.558.215.96.478 1.378.895.422.422.68.82.895 1.378.164.422.361 1.06.413 2.227.056 1.265.07 1.645.07 4.847 0 3.206-.014 3.586-.07 4.846-.052 1.172-.249 1.805-.413 2.227a3.701 3.701 0 01-.895 1.378 3.69 3.69 0 01-1.378.895c-.422.165-1.06.361-2.227.413-1.265.056-1.645.07-4.846.07-3.207 0-3.586-.014-4.847-.07-1.172-.052-1.805-.248-2.227-.413a3.71 3.71 0 01-1.378-.895 3.691 3.691 0 01-.895-1.378c-.164-.422-.361-1.06-.413-2.227-.056-1.265-.07-1.645-.07-4.846 0-3.207.014-3.586.07-4.847.052-1.172.249-1.805.413-2.227a3.71 3.71 0 01.895-1.378 3.68 3.68 0 011.378-.895c.422-.164 1.06-.361 2.227-.413 1.26-.056 1.64-.07 4.847-.07zm0-2.16C9.076 0 8.668.014 7.388.07c-1.275.057-2.151.263-2.91.558a5.857 5.857 0 00-2.129 1.388A5.88 5.88 0 00.962 4.139C.666 4.903.46 5.775.404 7.05.348 8.334.334 8.742.334 12s.014 3.666.07 4.945c.056 1.275.262 2.152.558 2.911a5.85 5.85 0 001.387 2.128 5.866 5.866 0 002.124 1.383c.764.296 1.636.502 2.91.558 1.28.056 1.688.07 4.946.07s3.665-.014 4.945-.07c1.275-.056 2.152-.262 2.911-.558a5.866 5.866 0 002.123-1.383 5.866 5.866 0 001.383-2.123c.296-.764.502-1.636.558-2.911.056-1.28.07-1.688.07-4.945 0-3.258-.014-3.666-.07-4.946-.056-1.275-.262-2.151-.558-2.91a5.62 5.62 0 00-1.373-2.133A5.867 5.867 0 0020.194.633C19.43.338 18.558.13 17.284.075 15.998.015 15.59 0 12.334 0z"/><path d="M12.334 5.836A6.166 6.166 0 006.169 12a6.166 6.166 0 006.165 6.164A6.166 6.166 0 0018.498 12a6.166 6.166 0 00-6.165-6.164zm0 10.162a3.999 3.999 0 110-7.998 3.999 3.999 0 010 7.998zM20.18 5.592a1.44 1.44 0 11-2.878 0 1.44 1.44 0 012.878 0z"/></g><defs><clipPath id="jclip0_482:1269"><path fill="#fff" transform="translate(.333)" d="M0 0h24v24H0z"/></clipPath></defs></svg><svg fill="none" viewBox="0 0 44 40" id="service_baterry" xmlns="http://www.w3.org/2000/svg"><path d="M38.5 2.583c0-1.012-.82-1.833-1.833-1.833h-7.334c-1.012 0-1.833.82-1.833 1.833V6.25h11V2.583zm-22 0c0-1.012-.82-1.833-1.833-1.833H7.333C6.321.75 5.5 1.57 5.5 2.583V6.25h11V2.583zM0 8.083v27.5c0 1.013.82 1.834 1.833 1.834H5.5v1.833h3.667v-1.833h25.666v1.833H38.5v-1.833h3.667A1.834 1.834 0 0044 35.583v-27.5H0zM14.667 33.75l3.666-11h-5.5l12.834-11-3.667 11h5.5l-12.833 11z" fill="#1E1B1B"/></svg><svg fill="none" viewBox="0 0 38 46" id="service_claim" xmlns="http://www.w3.org/2000/svg"><path d="M22.147 8.086h-6.294a18.436 18.436 0 01-7.185 5.03v8.244c0 6.973 4.037 13.226 10.332 16.089 6.295-2.863 10.332-9.116 10.332-16.089v-8.244a18.422 18.422 0 01-7.185-5.03zm4.095 11.592l-8.386 8.386a1.344 1.344 0 01-1.905 0l-4.193-4.192a1.35 1.35 0 010-1.907 1.35 1.35 0 011.906 0l3.24 3.24 7.433-7.432a1.347 1.347 0 111.905 1.905zm9.82-13.389A10.418 10.418 0 0126.826.72 1.347 1.347 0 0025.635 0h-13.27c-.5 0-.959.277-1.192.719a10.418 10.418 0 01-9.243 5.57c-.744 0-1.348.604-1.348 1.348V21.36a25.606 25.606 0 004.985 15.236 25.602 25.602 0 0013.027 9.341 1.336 1.336 0 00.812 0 25.6 25.6 0 0013.026-9.34 25.606 25.606 0 004.986-15.237V7.637c0-.744-.612-1.348-1.356-1.348zM32.027 21.3c0 8.253-4.91 15.634-12.509 18.803a1.347 1.347 0 01-1.036 0c-7.6-3.169-12.51-10.55-12.51-18.803v-9.193c0-.582.374-1.098.928-1.28 2.86-.94 5.379-2.67 7.284-5.001.256-.314.64-.495 1.044-.495h7.544c.413 0 .9.32 1.044.495a15.748 15.748 0 007.284 5.001c.395.13.696.429.838.802l.005.011c.034.093.058.19.072.29l.003.03c.006.049.01.097.01.147V21.3z" fill="#1E1B1B"/></svg><svg fill="none" viewBox="0 0 46 46" id="service_custom" xmlns="http://www.w3.org/2000/svg"><path d="M45.855 20.446c-.073-.646-.827-1.133-1.479-1.133-2.107 0-3.978-1.237-4.762-3.151a5.124 5.124 0 011.286-5.687c.494-.452.555-1.21.14-1.735a22.77 22.77 0 00-3.644-3.68 1.28 1.28 0 00-1.748.142c-1.37 1.518-3.833 2.082-5.736 1.288a5.108 5.108 0 01-3.106-4.993 1.276 1.276 0 00-1.13-1.344 22.952 22.952 0 00-5.174-.014 1.28 1.28 0 00-1.139 1.317c.075 2.132-1.189 4.104-3.15 4.907-1.88.768-4.325.208-5.693-1.297a1.282 1.282 0 00-1.736-.145 22.864 22.864 0 00-3.72 3.678 1.28 1.28 0 00.137 1.748 5.097 5.097 0 011.286 5.739c-.794 1.89-2.757 3.109-5.004 3.109-.73-.024-1.249.466-1.33 1.13a23.056 23.056 0 00-.01 5.23c.074.648.85 1.13 1.51 1.13 2.002-.05 3.925 1.19 4.732 3.152.804 1.96.286 4.245-1.286 5.688a1.277 1.277 0 00-.14 1.732 22.85 22.85 0 003.638 3.682 1.279 1.279 0 001.75-.139c1.377-1.522 3.84-2.085 5.734-1.29a5.102 5.102 0 013.113 4.992 1.276 1.276 0 001.128 1.344 22.786 22.786 0 005.175.014 1.28 1.28 0 001.138-1.317c-.077-2.132 1.19-4.103 3.147-4.905 1.893-.773 4.328-.207 5.696 1.296a1.285 1.285 0 001.736.145 22.893 22.893 0 003.72-3.679 1.277 1.277 0 00-.136-1.748 5.096 5.096 0 01-1.289-5.737c.782-1.866 2.672-3.118 4.705-3.118l.285.007c.66.054 1.266-.454 1.346-1.128.203-1.729.205-3.488.01-5.23zM23 36.26c-7.324 0-13.26-5.937-13.26-13.26 0-7.323 5.936-13.26 13.26-13.26 7.323 0 13.26 5.937 13.26 13.26 0 2.486-.686 4.81-1.876 6.799l-5.806-5.806a8.11 8.11 0 00.642-3.175 8.074 8.074 0 00-2.381-5.748 8.075 8.075 0 00-5.748-2.38 8.16 8.16 0 00-2.143.286.92.92 0 00-.637.641c-.083.313.01.634.255.88 0 0 2.867 2.888 3.826 3.847.1.1.1.34.086.426l-.009.063c-.097 1.055-.283 2.32-.437 2.807l-.061.058-.064.066c-.492.158-1.778.346-2.849.442v-.005l-.048.012a.612.612 0 01-.486-.185c-.998-.998-3.752-3.733-3.752-3.733-.247-.246-.5-.298-.67-.298-.393 0-.746.285-.857.693a8.156 8.156 0 002.098 7.876 8.077 8.077 0 005.748 2.38 8.111 8.111 0 003.175-.642l5.869 5.87A13.193 13.193 0 0123 36.26z" fill="#1E1B1B"/></svg><svg fill="none" viewBox="0 0 44 49" id="service_diahnostic" xmlns="http://www.w3.org/2000/svg"><path d="M.253 27.017c.215-.268.536-.425.873-.425h4.282c1.057-2.85 2.434-5.641 3.998-6.695 5.414-3.64 19.772-3.64 25.186 0 1.566 1.055 2.937 3.85 3.999 6.695h4.282c.34 0 .66.157.873.425.214.267.3.62.23.96l-.634 3.142c-.108.536-.57.918-1.103.918H40.97c1.225 1.444 1.819 3.263 1.827 5.082.008 2.248-.827 4.28-2.354 5.717-.017.015-.034.026-.05.04v4.397c0 .952-.757 1.727-1.69 1.727h-3.95c-.932 0-1.69-.775-1.69-1.727v-1.767H10.937v1.767c0 .952-.757 1.727-1.69 1.727h-3.95c-.93 0-1.69-.775-1.69-1.727v-4.31c-1.62-1.517-2.393-3.604-2.403-5.687-.007-1.882.614-3.767 1.91-5.241H1.76a1.13 1.13 0 01-1.103-.92l-.635-3.14a1.18 1.18 0 01.23-.958zm32.483-4.235c-4.315-2.903-17.157-2.903-21.47 0-.838.562-1.916 2.834-2.904 5.617h27.276c-.986-2.782-2.064-5.053-2.902-5.617zm5.054 14.77c0-1.877-1.49-3.397-3.325-3.397-1.837 0-3.324 1.52-3.324 3.397 0 1.878 1.487 3.399 3.324 3.399 1.836 0 3.325-1.521 3.325-3.399zm-28.3 3.399c1.836 0 3.325-1.521 3.325-3.399 0-1.877-1.489-3.397-3.324-3.397-1.838 0-3.325 1.52-3.325 3.397 0 1.878 1.49 3.399 3.325 3.399z" fill="#1E1B1B"/><mask id="na" style="mask-type:alpha" maskUnits="userSpaceOnUse" x="6" y="0" width="25" height="28"><path d="M26.555 14.482a1.76 1.76 0 01-.872 1.378 5.57 5.57 0 01-1.317.546c.254.875.72 2.14 1.548 3.495.787 1.287.796 2.841.025 4.264-1.137 2.096-3.648 3.504-6.248 3.504-1.786 0-3.374-.84-4.47-2.368-1.568-2.183-1.915-5.404-.93-8.616.915-2.977-.308-4.565-1.117-5.248a3.61 3.61 0 01-2.542 1.05c-2.026 0-3.67-1.679-3.67-3.75 0-2.073 1.644-3.752 3.67-3.752 2.027 0 3.669 1.68 3.669 3.751 0 .292-.036.574-.097.847 1.528 1.142 3.291 3.714 2.057 7.734-.778 2.535-.54 5.116.624 6.735.493.688 1.381 1.507 2.807 1.507 1.843 0 3.67-.994 4.442-2.417.285-.525.52-1.32.03-2.123a16.584 16.584 0 01-1.905-4.49 5.41 5.41 0 01-1.776-.608 1.752 1.752 0 01-.892-1.327c-2.425-2.24-3.544-6.277-3.609-6.513-.13-.485.093-.983.51-1.21-.335-3.03.762-4.558 1.424-5.18a.769.769 0 01.314-.77L19.446.11a.601.601 0 01.892.24l.58 1.146c.174.346.02.714-.345.824l-1.375.415c-.349.105-.766-.065-.964-.378-.548.59-1.337 1.905-1.065 4.412.373.073.694.35.802.751.33 1.213 1.285 3.717 2.703 5.22.45-.179.97-.17 1.43.08.299.164.592.246.892.253h.062c.317-.007.627-.099.944-.28.448-.257.96-.28 1.41-.117 1.385-1.508 2.32-3.96 2.645-5.156.108-.399.43-.678.802-.75.273-2.508-.516-3.822-1.065-4.412-.198.312-.615.483-.964.377l-1.375-.414c-.364-.11-.52-.48-.344-.825L25.69.35a.601.601 0 01.891-.24L27.8.922a.77.77 0 01.314.77c.66.622 1.759 2.148 1.424 5.18.417.226.64.724.51 1.21-.064.23-1.15 4.139-3.492 6.399zM10.632 7.27c-.791 0-1.433.655-1.433 1.465s.642 1.466 1.433 1.466 1.433-.656 1.433-1.466c0-.81-.641-1.465-1.433-1.465z" fill="#000"/></mask><g mask="url(#na)"><path d="M51.515-2.656h-33.03L15.1 6.212l3.386 13.326h33.029V-2.656z" fill="#1E1B1B"/></g></svg><svg fill="none" viewBox="0 0 42 42" id="service_engine" xmlns="http://www.w3.org/2000/svg"><path d="M32.977 7.137a3.286 3.286 0 01-3.041-2.051H27.07V2.625h2.866a3.286 3.286 0 013.04-2.05 3.285 3.285 0 013.282 3.28 3.285 3.285 0 01-3.281 3.282zm5.742 6.973a3.26 3.26 0 01-1.498-.364l-3.046 2.54c-.222.183-.5.284-.788.284H27.07v-2.46h5.871l2.672-2.227a3.285 3.285 0 013.106-4.336A3.285 3.285 0 0142 10.828a3.285 3.285 0 01-3.281 3.281zm0 10.253a3.286 3.286 0 01-3.041-2.05H27.07v-2.461h8.608a3.286 3.286 0 013.04-2.051A3.285 3.285 0 0142 21.082a3.285 3.285 0 01-3.281 3.281zm-4.544 1.516l3.046 2.539a3.26 3.26 0 011.498-.363A3.285 3.285 0 0142 31.335a3.285 3.285 0 01-3.281 3.282 3.285 3.285 0 01-3.106-4.336l-2.672-2.226h-5.87v-2.461h6.316c.288 0 .566.1.788.285zm-1.198 9.148a3.285 3.285 0 013.28 3.282 3.285 3.285 0 01-3.28 3.28 3.286 3.286 0 01-3.041-2.05H27.07v-2.46h2.866a3.286 3.286 0 013.04-2.052zM12.305 21.082c0-4.75 3.864-8.613 8.613-8.613 1.32 0 2.572.299 3.691.832v15.562a8.562 8.562 0 01-3.691.832c-4.75 0-8.613-3.864-8.613-8.613z" fill="#1E1B1B"/><path d="M23.379 42h-4.922c-.68 0-1.23-.55-1.23-1.23v-1.602a18.462 18.462 0 01-6.487-2.687l-1.133 1.132c-.48.48-1.26.48-1.74 0l-3.48-3.48a1.23 1.23 0 010-1.74l1.132-1.133a18.461 18.461 0 01-2.687-6.487H1.23c-.68 0-1.23-.55-1.23-1.23v-4.922c0-.68.55-1.23 1.23-1.23h1.602a18.464 18.464 0 012.687-6.487L4.387 9.77a1.23 1.23 0 010-1.74l3.48-3.48a1.23 1.23 0 011.74 0l1.133 1.132a18.463 18.463 0 016.487-2.687v-1.6c0-.68.55-1.23 1.23-1.23h4.922c.68 0 1.23.55 1.23 1.23v9.246a11.023 11.023 0 00-3.691-.633c-6.106 0-11.074 4.968-11.074 11.074s4.968 11.074 11.074 11.074a11.01 11.01 0 003.691-.633v9.247c0 .68-.55 1.23-1.23 1.23z" fill="#1E1B1B"/></svg><svg fill="none" viewBox="0 0 34 46" id="service_oil" xmlns="http://www.w3.org/2000/svg"><path d="M33.172 18.193c0-.343-.131-.673-.366-.923L22.024 5.815a1.348 1.348 0 00-.981-.424H7.566c-.384 0-.751.164-1.007.452l-5.39 6.064c-.22.247-.34.566-.34.896v23.763c0 1.035.39 1.98 1.031 2.696a4.027 4.027 0 00-1.032 2.695A4.048 4.048 0 004.871 46H29.13a4.048 4.048 0 004.043-4.043c0-1.034-.39-1.98-1.032-2.695a4.026 4.026 0 001.032-2.696V18.193zM17 37.913a4.048 4.048 0 01-4.043-4.042c0-.555.159-1.567 1.53-3.93a37.168 37.168 0 011.404-2.227 1.348 1.348 0 012.218 0c.029.042.712 1.033 1.404 2.227 1.371 2.363 1.53 3.375 1.53 3.93A4.048 4.048 0 0117 37.914zm9.935-15.899a2.684 2.684 0 01-1.848.733 2.686 2.686 0 01-1.962-.847l-6.19-6.577a2.695 2.695 0 113.925-3.695l6.19 6.576a2.695 2.695 0 01-.115 3.81z" fill="#1E1B1B"/><path d="M15.652 33.872a1.349 1.349 0 002.696 0c-.012-.413-.572-1.587-1.348-2.894-.776 1.308-1.337 2.482-1.348 2.894zm0-33.872H7.566C6.822 0 6.22.603 6.22 1.348v1.347H17V1.348C17 .603 16.397 0 15.652 0z" fill="#1E1B1B"/></svg><svg fill="none" viewBox="0 0 46 46" id="service_wheel" xmlns="http://www.w3.org/2000/svg"><path d="M23 7.667C14.545 7.667 7.666 14.546 7.666 23c0 8.455 6.88 15.334 15.334 15.334S38.333 31.454 38.333 23 31.455 7.667 23 7.667zm7.844 5.727a.956.956 0 01.674-.315c.223-.025.51.083.697.261a13.344 13.344 0 013.904 6.928.96.96 0 01-.498 1.052c-.938.485-2.051.72-3.118.72-1.391 0-2.709-.399-3.472-1.162-1.625-1.624-.947-4.422 1.813-7.484zM15.155 32.756a.958.958 0 01-.673.316h-.038a.958.958 0 01-.659-.261 13.344 13.344 0 01-3.904-6.93.96.96 0 01.498-1.051c2.16-1.115 5.24-.907 6.59.442 1.623 1.624.945 4.422-1.814 7.484zm1.814-11.878c-.764.763-2.081 1.162-3.472 1.162-1.067 0-2.179-.235-3.118-.72a.96.96 0 01-.498-1.052 13.345 13.345 0 013.904-6.928c.187-.178.463-.288.697-.261.258.01.501.124.673.315 2.761 3.062 3.439 5.86 1.814 7.484zm10.115 14.901a13.431 13.431 0 01-8.168 0 .96.96 0 01-.667-.98c.24-3.448 2.282-6.049 4.75-6.049 2.47 0 4.512 2.6 4.751 6.05a.961.961 0 01-.666.98zM19.166 23A3.838 3.838 0 0123 19.167 3.838 3.838 0 0126.833 23 3.838 3.838 0 0123 26.834 3.838 3.838 0 0119.166 23zm8.584-11.724c-.24 3.448-2.281 6.049-4.75 6.049s-4.511-2.6-4.75-6.049a.957.957 0 01.664-.979 13.444 13.444 0 018.172 0 .957.957 0 01.664.98zm8.37 14.454a13.344 13.344 0 01-3.904 6.93.957.957 0 01-.66.261h-.037a.956.956 0 01-.674-.316c-2.76-3.062-3.438-5.86-1.813-7.484 1.35-1.35 4.428-1.556 6.59-.443a.96.96 0 01.498 1.052z" fill="#000"/><path d="M23 0C10.317 0 0 10.318 0 23s10.317 23 23 23 23-10.318 23-23S35.683 0 23 0zm0 40.25c-9.512 0-17.25-7.739-17.25-17.25S13.488 5.75 23 5.75 40.25 13.489 40.25 23 32.512 40.25 23 40.25z" fill="#000"/></svg><svg fill="none" viewBox="0 0 55 39" id="service_work" xmlns="http://www.w3.org/2000/svg"><path d="M53.834 11.857a1.393 1.393 0 00-1.074-.511h-5.27c-1.3-3.43-2.994-6.79-4.92-8.06-6.661-4.382-24.33-4.382-30.992 0-1.927 1.27-3.614 4.635-4.922 8.06h-5.27c-.418 0-.812.188-1.074.511a1.379 1.379 0 00-.283 1.157l.78 3.782A1.386 1.386 0 002.168 17.9h1.561c-1.507 1.738-2.237 3.927-2.247 6.118-.01 2.706 1.017 5.151 2.896 6.882.02.018.042.03.061.048v5.292c0 1.146.932 2.08 2.08 2.08h4.86c1.148 0 2.08-.934 2.08-2.08v-2.127h27.23v2.127c0 1.146.931 2.08 2.08 2.08h4.86c1.145 0 2.08-.934 2.08-2.08v-5.188c1.993-1.826 2.945-4.338 2.958-6.846.008-2.265-.756-4.535-2.351-6.31h1.665a1.38 1.38 0 001.357-1.106l.782-3.78c.08-.406-.021-.83-.285-1.154zM13.861 6.76c5.31-3.495 21.113-3.495 26.42 0 1.032.676 2.358 3.412 3.574 6.761H10.29c1.213-3.348 2.54-6.082 3.571-6.761zm-6.22 17.78a4.09 4.09 0 014.092-4.09 4.09 4.09 0 110 8.18 4.092 4.092 0 01-4.091-4.09zm34.825 4.091a4.092 4.092 0 11.001-8.183 4.092 4.092 0 010 8.183z" fill="#1E1B1B"/></svg><svg fill="none" viewBox="0 0 185 36" id="star" xmlns="http://www.w3.org/2000/svg"><path d="M15.366 4.83c1.137-2.085 4.13-2.085 5.268 0l2.292 4.202a3 3 0 002.081 1.512l4.705.881c2.334.437 3.26 3.284 1.628 5.01l-3.289 3.478a3 3 0 00-.795 2.447l.616 4.747c.306 2.355-2.116 4.115-4.261 3.096l-4.325-2.052a3 3 0 00-2.573 0l-4.324 2.052c-2.145 1.019-4.567-.74-4.261-3.096l.616-4.747a3 3 0 00-.795-2.447L4.66 16.435c-1.631-1.726-.706-4.573 1.628-5.01l4.705-.88a3 3 0 002.081-1.513l2.292-4.203zm38 0c1.137-2.085 4.13-2.085 5.268 0l2.292 4.202a3 3 0 002.081 1.512l4.705.881c2.334.437 3.26 3.284 1.628 5.01l-3.289 3.478a3 3 0 00-.795 2.447l.616 4.747c.306 2.355-2.116 4.115-4.261 3.096l-4.325-2.052a3 3 0 00-2.572 0l-4.325 2.052c-2.145 1.019-4.567-.74-4.261-3.096l.616-4.747a3 3 0 00-.795-2.447l-3.289-3.478c-1.631-1.726-.706-4.573 1.628-5.01l4.705-.88a3 3 0 002.081-1.513l2.292-4.203zm37 0c1.137-2.085 4.13-2.085 5.268 0l2.292 4.202a3 3 0 002.081 1.512l4.705.881c2.334.437 3.259 3.284 1.628 5.01l-3.289 3.478a3 3 0 00-.795 2.447l.616 4.747c.306 2.355-2.116 4.115-4.261 3.096l-4.325-2.052a3 3 0 00-2.573 0l-4.324 2.052c-2.145 1.019-4.567-.74-4.261-3.096l.616-4.747a3 3 0 00-.795-2.447l-3.289-3.478c-1.631-1.726-.706-4.573 1.628-5.01l4.705-.88a3 3 0 002.081-1.513l2.292-4.203zm38 0c1.137-2.085 4.131-2.085 5.268 0l2.292 4.202a2.998 2.998 0 002.081 1.512l4.705.881c2.334.437 3.259 3.284 1.628 5.01l-3.289 3.478a3 3 0 00-.795 2.447l.616 4.747c.306 2.355-2.116 4.115-4.261 3.096l-4.325-2.052a2.998 2.998 0 00-2.572 0l-4.325 2.052c-2.145 1.019-4.567-.74-4.261-3.096l.616-4.747a3 3 0 00-.795-2.447l-3.289-3.478c-1.631-1.726-.706-4.573 1.628-5.01l4.705-.88a2.998 2.998 0 002.081-1.513l2.292-4.203z" fill="#FFB648"/><path d="M164.366 4.83c1.137-2.085 4.131-2.085 5.268 0l2.292 4.202a2.998 2.998 0 002.081 1.512l4.705.881c2.334.437 3.259 3.284 1.628 5.01l-3.289 3.478a3 3 0 00-.795 2.447l.616 4.747c.306 2.355-2.116 4.115-4.261 3.096l-4.325-2.052a2.998 2.998 0 00-2.572 0l-4.325 2.052c-2.145 1.019-4.567-.74-4.261-3.096l.616-4.747a3 3 0 00-.795-2.447l-3.289-3.478c-1.631-1.726-.706-4.573 1.628-5.01l4.705-.88a2.998 2.998 0 002.081-1.513l2.292-4.203z" fill="#D7D1C7"/></svg><svg fill="none" viewBox="0 0 48 48" id="swiper-next" xmlns="http://www.w3.org/2000/svg"><circle cx="24" cy="24" r="24" fill="#fff"/><path d="M13.715 23a1 1 0 000 2v-2zm20.836 1.707a1 1 0 000-1.414l-6.364-6.364a1 1 0 00-1.414 1.414L32.43 24l-5.657 5.657a1 1 0 001.414 1.414l6.364-6.364zM13.715 25h20.129v-2h-20.13v2z" fill="#1E1B1B"/></svg><svg fill="none" viewBox="0 0 48 48" id="swiper-prev" xmlns="http://www.w3.org/2000/svg"><circle cx="24" cy="24" r="24" transform="rotate(-180 24 24)" fill="#fff"/><path d="M34.285 25a1 1 0 000-2v2zM13.45 23.293a1 1 0 000 1.414l6.364 6.364a1 1 0 001.414-1.414L15.57 24l5.657-5.657a1 1 0 00-1.414-1.414l-6.364 6.364zM34.285 23H14.156v2h20.13v-2z" fill="#1E1B1B"/></svg><svg fill="none" viewBox="0 0 25 24" id="twitter" xmlns="http://www.w3.org/2000/svg"><g clip-path="url(#vclip0_482:1267)"><path d="M8.217 21.75c9.054 0 14.008-7.503 14.008-14.008 0-.21-.005-.426-.014-.637a9.999 9.999 0 002.456-2.55c-.898.4-1.85.66-2.827.774a4.95 4.95 0 002.166-2.723 9.897 9.897 0 01-3.126 1.195 4.93 4.93 0 00-8.394 4.49A13.985 13.985 0 012.339 3.15a4.93 4.93 0 001.524 6.57 4.93 4.93 0 01-2.23-.614v.061a4.922 4.922 0 003.95 4.828 4.894 4.894 0 01-2.222.085A4.934 4.934 0 007.96 17.5a9.875 9.875 0 01-7.293 2.04 13.969 13.969 0 007.55 2.211z" fill="#fff"/></g><defs><clipPath id="vclip0_482:1267"><path fill="#fff" transform="translate(.667)" d="M0 0h24v24H0z"/></clipPath></defs></svg></svg>