<svg width="25" height="24" fill="none" xmlns="http://www.w3.org/2000/svg"><g clip-path="url(#clip0_482:1269)" fill="#fff"><path d="M12.334 2.16c3.206 0 3.585.015 4.846.071 1.172.052 1.805.249 2.227.413.558.215.96.478 1.378.895.422.422.68.82.895 1.378.164.422.361 1.06.413 2.227.056 1.265.07 1.645.07 4.847 0 3.206-.014 3.586-.07 4.846-.052 1.172-.249 1.805-.413 2.227a3.701 3.701 0 01-.895 1.378 3.69 3.69 0 01-1.378.895c-.422.165-1.06.361-2.227.413-1.265.056-1.645.07-4.846.07-3.207 0-3.586-.014-4.847-.07-1.172-.052-1.805-.248-2.227-.413a3.71 3.71 0 01-1.378-.895 3.691 3.691 0 01-.895-1.378c-.164-.422-.361-1.06-.413-2.227-.056-1.265-.07-1.645-.07-4.846 0-3.207.014-3.586.07-4.847.052-1.172.249-1.805.413-2.227a3.71 3.71 0 01.895-1.378 3.68 3.68 0 011.378-.895c.422-.164 1.06-.361 2.227-.413 1.26-.056 1.64-.07 4.847-.07zm0-2.16C9.076 0 8.668.014 7.388.07c-1.275.057-2.151.263-2.91.558a5.857 5.857 0 00-2.129 1.388A5.88 5.88 0 00.962 4.139C.666 4.903.46 5.775.404 7.05.348 8.334.334 8.742.334 12s.014 3.666.07 4.945c.056 1.275.262 2.152.558 2.911a5.85 5.85 0 001.387 2.128 5.866 5.866 0 002.124 1.383c.764.296 1.636.502 2.91.558 1.28.056 1.688.07 4.946.07s3.665-.014 4.945-.07c1.275-.056 2.152-.262 2.911-.558a5.866 5.866 0 002.123-1.383 5.866 5.866 0 001.383-2.123c.296-.764.502-1.636.558-2.911.056-1.28.07-1.688.07-4.945 0-3.258-.014-3.666-.07-4.946-.056-1.275-.262-2.151-.558-2.91a5.62 5.62 0 00-1.373-2.133A5.867 5.867 0 0020.194.633C19.43.338 18.558.13 17.284.075 15.998.015 15.59 0 12.334 0z"/><path d="M12.334 5.836A6.166 6.166 0 006.169 12a6.166 6.166 0 006.165 6.164A6.166 6.166 0 0018.498 12a6.166 6.166 0 00-6.165-6.164zm0 10.162a3.999 3.999 0 110-7.998 3.999 3.999 0 010 7.998zM20.18 5.592a1.44 1.44 0 11-2.878 0 1.44 1.44 0 012.878 0z"/></g><defs><clipPath id="clip0_482:1269"><path fill="#fff" transform="translate(.333)" d="M0 0h24v24H0z"/></clipPath></defs></svg>