<svg width="25" height="24" fill="none" xmlns="http://www.w3.org/2000/svg"><g clip-path="url(#clip0_482:1267)"><path d="M8.217 21.75c9.054 0 14.008-7.503 14.008-14.008 0-.21-.005-.426-.014-.637a9.999 9.999 0 002.456-2.55c-.898.4-1.85.66-2.827.774a4.95 4.95 0 002.166-2.723 9.897 9.897 0 01-3.126 1.195 4.93 4.93 0 00-8.394 4.49A13.985 13.985 0 012.339 3.15a4.93 4.93 0 001.524 6.57 4.93 4.93 0 01-2.23-.614v.061a4.922 4.922 0 003.95 4.828 4.894 4.894 0 01-2.222.085A4.934 4.934 0 007.96 17.5a9.875 9.875 0 01-7.293 2.04 13.969 13.969 0 007.55 2.211z" fill="#fff"/></g><defs><clipPath id="clip0_482:1267"><path fill="#fff" transform="translate(.667)" d="M0 0h24v24H0z"/></clipPath></defs></svg>